<mxfile host="app.diagrams.net" modified="2024-03-27T19:40:17.284Z" agent="Mozilla/5.0 (Windows NT 10.0; Win64; x64) AppleWebKit/537.36 (KHTML, like Gecko) Chrome/122.0.0.0 Safari/537.36 Edg/122.0.0.0" etag="49pTybEFHIM-7Zy78i3k" version="24.2.0" type="device">
  <diagram name="Página-1" id="NDIq5Vo2I-ZVHcOlOsj3">
    <mxGraphModel dx="1155" dy="633" grid="1" gridSize="10" guides="1" tooltips="1" connect="1" arrows="1" fold="1" page="1" pageScale="1" pageWidth="827" pageHeight="1169" math="0" shadow="0">
      <root>
        <mxCell id="0" />
        <mxCell id="1" parent="0" />
        <mxCell id="SG4v4DzYksIEYqK9ultu-12" style="edgeStyle=orthogonalEdgeStyle;rounded=0;orthogonalLoop=1;jettySize=auto;html=1;" edge="1" parent="1" source="SG4v4DzYksIEYqK9ultu-4" target="SG4v4DzYksIEYqK9ultu-9">
          <mxGeometry relative="1" as="geometry" />
        </mxCell>
        <mxCell id="SG4v4DzYksIEYqK9ultu-4" value="Início" style="strokeWidth=2;html=1;shape=mxgraph.flowchart.terminator;whiteSpace=wrap;" vertex="1" parent="1">
          <mxGeometry x="30" y="40" width="100" height="60" as="geometry" />
        </mxCell>
        <mxCell id="SG4v4DzYksIEYqK9ultu-9" value="Nome" style="html=1;strokeWidth=2;shape=manualInput;whiteSpace=wrap;rounded=1;size=26;arcSize=11;" vertex="1" parent="1">
          <mxGeometry x="40" y="140" width="100" height="60" as="geometry" />
        </mxCell>
        <mxCell id="SG4v4DzYksIEYqK9ultu-14" value="Nome, endereço e telefone" style="strokeWidth=2;html=1;shape=mxgraph.flowchart.display;whiteSpace=wrap;" vertex="1" parent="1">
          <mxGeometry x="10" y="450" width="100" height="60" as="geometry" />
        </mxCell>
        <mxCell id="SG4v4DzYksIEYqK9ultu-15" style="edgeStyle=orthogonalEdgeStyle;rounded=0;orthogonalLoop=1;jettySize=auto;html=1;entryX=0.5;entryY=0;entryDx=0;entryDy=0;entryPerimeter=0;" edge="1" parent="1" source="SG4v4DzYksIEYqK9ultu-21" target="SG4v4DzYksIEYqK9ultu-14">
          <mxGeometry relative="1" as="geometry" />
        </mxCell>
        <mxCell id="SG4v4DzYksIEYqK9ultu-16" value="Fim" style="strokeWidth=2;html=1;shape=mxgraph.flowchart.terminator;whiteSpace=wrap;" vertex="1" parent="1">
          <mxGeometry y="555" width="100" height="60" as="geometry" />
        </mxCell>
        <mxCell id="SG4v4DzYksIEYqK9ultu-18" style="edgeStyle=orthogonalEdgeStyle;rounded=0;orthogonalLoop=1;jettySize=auto;html=1;entryX=0.5;entryY=0;entryDx=0;entryDy=0;entryPerimeter=0;" edge="1" parent="1" source="SG4v4DzYksIEYqK9ultu-14" target="SG4v4DzYksIEYqK9ultu-16">
          <mxGeometry relative="1" as="geometry" />
        </mxCell>
        <mxCell id="SG4v4DzYksIEYqK9ultu-19" value="Início" style="strokeWidth=2;html=1;shape=mxgraph.flowchart.terminator;whiteSpace=wrap;" vertex="1" parent="1">
          <mxGeometry x="290" y="40" width="100" height="60" as="geometry" />
        </mxCell>
        <mxCell id="SG4v4DzYksIEYqK9ultu-24" style="edgeStyle=orthogonalEdgeStyle;rounded=0;orthogonalLoop=1;jettySize=auto;html=1;" edge="1" parent="1" source="SG4v4DzYksIEYqK9ultu-20" target="SG4v4DzYksIEYqK9ultu-21">
          <mxGeometry relative="1" as="geometry" />
        </mxCell>
        <mxCell id="SG4v4DzYksIEYqK9ultu-20" value="Endereço" style="html=1;strokeWidth=2;shape=manualInput;whiteSpace=wrap;rounded=1;size=26;arcSize=11;" vertex="1" parent="1">
          <mxGeometry x="30" y="250" width="100" height="60" as="geometry" />
        </mxCell>
        <mxCell id="SG4v4DzYksIEYqK9ultu-21" value="Telefone" style="html=1;strokeWidth=2;shape=manualInput;whiteSpace=wrap;rounded=1;size=26;arcSize=11;" vertex="1" parent="1">
          <mxGeometry x="30" y="340" width="100" height="60" as="geometry" />
        </mxCell>
        <mxCell id="SG4v4DzYksIEYqK9ultu-23" style="edgeStyle=orthogonalEdgeStyle;rounded=0;orthogonalLoop=1;jettySize=auto;html=1;entryX=0.5;entryY=0.167;entryDx=0;entryDy=0;entryPerimeter=0;" edge="1" parent="1" source="SG4v4DzYksIEYqK9ultu-9" target="SG4v4DzYksIEYqK9ultu-20">
          <mxGeometry relative="1" as="geometry" />
        </mxCell>
        <mxCell id="SG4v4DzYksIEYqK9ultu-25" value="Nome" style="html=1;strokeWidth=2;shape=manualInput;whiteSpace=wrap;rounded=1;size=26;arcSize=11;" vertex="1" parent="1">
          <mxGeometry x="280" y="140" width="100" height="60" as="geometry" />
        </mxCell>
        <mxCell id="SG4v4DzYksIEYqK9ultu-26" style="edgeStyle=orthogonalEdgeStyle;rounded=0;orthogonalLoop=1;jettySize=auto;html=1;entryX=0.6;entryY=0.131;entryDx=0;entryDy=0;entryPerimeter=0;" edge="1" parent="1" source="SG4v4DzYksIEYqK9ultu-19" target="SG4v4DzYksIEYqK9ultu-25">
          <mxGeometry relative="1" as="geometry" />
        </mxCell>
        <mxCell id="SG4v4DzYksIEYqK9ultu-29" style="edgeStyle=orthogonalEdgeStyle;rounded=0;orthogonalLoop=1;jettySize=auto;html=1;entryX=0.5;entryY=0;entryDx=0;entryDy=0;" edge="1" parent="1" source="SG4v4DzYksIEYqK9ultu-27" target="SG4v4DzYksIEYqK9ultu-32">
          <mxGeometry relative="1" as="geometry">
            <mxPoint x="490" y="340" as="targetPoint" />
          </mxGeometry>
        </mxCell>
        <mxCell id="SG4v4DzYksIEYqK9ultu-27" value="é nome?" style="strokeWidth=2;html=1;shape=mxgraph.flowchart.decision;whiteSpace=wrap;" vertex="1" parent="1">
          <mxGeometry x="290" y="240" width="100" height="100" as="geometry" />
        </mxCell>
        <mxCell id="SG4v4DzYksIEYqK9ultu-28" style="edgeStyle=orthogonalEdgeStyle;rounded=0;orthogonalLoop=1;jettySize=auto;html=1;entryX=0.5;entryY=0;entryDx=0;entryDy=0;entryPerimeter=0;" edge="1" parent="1" source="SG4v4DzYksIEYqK9ultu-25" target="SG4v4DzYksIEYqK9ultu-27">
          <mxGeometry relative="1" as="geometry" />
        </mxCell>
        <mxCell id="SG4v4DzYksIEYqK9ultu-30" style="edgeStyle=orthogonalEdgeStyle;rounded=0;orthogonalLoop=1;jettySize=auto;html=1;entryX=-0.003;entryY=0.881;entryDx=0;entryDy=0;entryPerimeter=0;" edge="1" parent="1" source="SG4v4DzYksIEYqK9ultu-27" target="SG4v4DzYksIEYqK9ultu-25">
          <mxGeometry relative="1" as="geometry">
            <Array as="points">
              <mxPoint x="260" y="260" />
              <mxPoint x="260" y="193" />
            </Array>
          </mxGeometry>
        </mxCell>
        <mxCell id="SG4v4DzYksIEYqK9ultu-31" value="Sim" style="text;html=1;align=center;verticalAlign=middle;whiteSpace=wrap;rounded=0;" vertex="1" parent="1">
          <mxGeometry x="410" y="230" width="60" height="30" as="geometry" />
        </mxCell>
        <mxCell id="SG4v4DzYksIEYqK9ultu-32" value="Endereço" style="html=1;strokeWidth=2;shape=manualInput;whiteSpace=wrap;rounded=1;size=26;arcSize=11;" vertex="1" parent="1">
          <mxGeometry x="440" y="300" width="100" height="60" as="geometry" />
        </mxCell>
        <mxCell id="SG4v4DzYksIEYqK9ultu-46" style="edgeStyle=orthogonalEdgeStyle;rounded=0;orthogonalLoop=1;jettySize=auto;html=1;entryX=0.5;entryY=0;entryDx=0;entryDy=0;" edge="1" parent="1" source="SG4v4DzYksIEYqK9ultu-34" target="SG4v4DzYksIEYqK9ultu-37">
          <mxGeometry relative="1" as="geometry" />
        </mxCell>
        <mxCell id="SG4v4DzYksIEYqK9ultu-58" style="edgeStyle=orthogonalEdgeStyle;rounded=0;orthogonalLoop=1;jettySize=auto;html=1;entryX=0;entryY=0.75;entryDx=0;entryDy=0;" edge="1" parent="1" source="SG4v4DzYksIEYqK9ultu-34" target="SG4v4DzYksIEYqK9ultu-32">
          <mxGeometry relative="1" as="geometry">
            <Array as="points">
              <mxPoint x="420" y="430" />
              <mxPoint x="420" y="345" />
            </Array>
          </mxGeometry>
        </mxCell>
        <mxCell id="SG4v4DzYksIEYqK9ultu-34" value="é endereço" style="strokeWidth=2;html=1;shape=mxgraph.flowchart.decision;whiteSpace=wrap;" vertex="1" parent="1">
          <mxGeometry x="440" y="390" width="100" height="100" as="geometry" />
        </mxCell>
        <mxCell id="SG4v4DzYksIEYqK9ultu-35" style="edgeStyle=orthogonalEdgeStyle;rounded=0;orthogonalLoop=1;jettySize=auto;html=1;entryX=0.5;entryY=0;entryDx=0;entryDy=0;entryPerimeter=0;" edge="1" parent="1" source="SG4v4DzYksIEYqK9ultu-32" target="SG4v4DzYksIEYqK9ultu-34">
          <mxGeometry relative="1" as="geometry" />
        </mxCell>
        <mxCell id="SG4v4DzYksIEYqK9ultu-37" value="Telefone" style="html=1;strokeWidth=2;shape=manualInput;whiteSpace=wrap;rounded=1;size=26;arcSize=11;" vertex="1" parent="1">
          <mxGeometry x="550" y="500" width="100" height="60" as="geometry" />
        </mxCell>
        <mxCell id="SG4v4DzYksIEYqK9ultu-44" value="Sim" style="text;html=1;align=center;verticalAlign=middle;whiteSpace=wrap;rounded=0;" vertex="1" parent="1">
          <mxGeometry x="550" y="390" width="60" height="30" as="geometry" />
        </mxCell>
        <mxCell id="SG4v4DzYksIEYqK9ultu-51" style="edgeStyle=orthogonalEdgeStyle;rounded=0;orthogonalLoop=1;jettySize=auto;html=1;entryX=0.5;entryY=0;entryDx=0;entryDy=0;entryPerimeter=0;" edge="1" parent="1" source="SG4v4DzYksIEYqK9ultu-48" target="SG4v4DzYksIEYqK9ultu-52">
          <mxGeometry relative="1" as="geometry">
            <mxPoint x="860" y="660" as="targetPoint" />
          </mxGeometry>
        </mxCell>
        <mxCell id="SG4v4DzYksIEYqK9ultu-59" style="edgeStyle=orthogonalEdgeStyle;rounded=0;orthogonalLoop=1;jettySize=auto;html=1;entryX=0.25;entryY=1;entryDx=0;entryDy=0;" edge="1" parent="1" source="SG4v4DzYksIEYqK9ultu-48" target="SG4v4DzYksIEYqK9ultu-37">
          <mxGeometry relative="1" as="geometry" />
        </mxCell>
        <mxCell id="SG4v4DzYksIEYqK9ultu-48" value="é telefone?" style="strokeWidth=2;html=1;shape=mxgraph.flowchart.decision;whiteSpace=wrap;" vertex="1" parent="1">
          <mxGeometry x="670" y="550" width="100" height="100" as="geometry" />
        </mxCell>
        <mxCell id="SG4v4DzYksIEYqK9ultu-49" style="edgeStyle=orthogonalEdgeStyle;rounded=0;orthogonalLoop=1;jettySize=auto;html=1;entryX=0.5;entryY=0;entryDx=0;entryDy=0;entryPerimeter=0;" edge="1" parent="1" source="SG4v4DzYksIEYqK9ultu-37" target="SG4v4DzYksIEYqK9ultu-48">
          <mxGeometry relative="1" as="geometry" />
        </mxCell>
        <mxCell id="SG4v4DzYksIEYqK9ultu-50" value="Sim" style="text;html=1;align=center;verticalAlign=middle;whiteSpace=wrap;rounded=0;" vertex="1" parent="1">
          <mxGeometry x="810" y="530" width="60" height="30" as="geometry" />
        </mxCell>
        <mxCell id="SG4v4DzYksIEYqK9ultu-55" style="edgeStyle=orthogonalEdgeStyle;rounded=0;orthogonalLoop=1;jettySize=auto;html=1;" edge="1" parent="1" source="SG4v4DzYksIEYqK9ultu-52" target="SG4v4DzYksIEYqK9ultu-53">
          <mxGeometry relative="1" as="geometry" />
        </mxCell>
        <mxCell id="SG4v4DzYksIEYqK9ultu-52" value="Nome , Endereço e Telefone" style="strokeWidth=2;html=1;shape=mxgraph.flowchart.display;whiteSpace=wrap;" vertex="1" parent="1">
          <mxGeometry x="800" y="670" width="120" height="80" as="geometry" />
        </mxCell>
        <mxCell id="SG4v4DzYksIEYqK9ultu-53" value="Fim" style="strokeWidth=2;html=1;shape=mxgraph.flowchart.terminator;whiteSpace=wrap;" vertex="1" parent="1">
          <mxGeometry x="810" y="820" width="100" height="60" as="geometry" />
        </mxCell>
      </root>
    </mxGraphModel>
  </diagram>
</mxfile>
